<?xml version="1.0" standalone="no"?>
<!DOCTYPE svg PUBLIC "-//W3C//DTD SVG 20010904//EN"
 "http://www.w3.org/TR/2001/REC-SVG-20010904/DTD/svg10.dtd">
<svg version="1.0" xmlns="http://www.w3.org/2000/svg"
 width="192.000000pt" height="192.000000pt" viewBox="0 0 192.000000 192.000000"
 preserveAspectRatio="xMidYMid meet">

<g transform="translate(0.000000,192.000000) scale(0.100000,-0.100000)"
fill="#000000" stroke="none">
<path d="M740 1664 c0 -68 -2 -75 -17 -69 -37 14 -121 17 -157 5 -81 -26 -135
-103 -136 -192 l0 -48 -37 0 c-47 0 -97 -29 -124 -72 -15 -26 -19 -46 -17 -88
6 -84 50 -132 135 -146 l40 -6 6 -54 c8 -81 52 -167 112 -222 l51 -47 -49 -35
c-137 -98 -237 -289 -237 -456 0 -47 5 -69 23 -94 39 -58 70 -74 153 -78 50
-3 74 -8 74 -17 0 -6 8 -19 18 -28 16 -15 54 -17 320 -17 l301 0 23 30 c20 27
27 30 77 30 69 0 133 30 161 74 15 25 20 50 20 103 0 168 -90 344 -229 446
l-57 42 53 48 c64 59 103 135 110 216 5 58 7 61 32 61 43 0 114 42 135 79 27
47 26 117 -2 162 -27 43 -53 59 -111 68 -44 6 -46 8 -49 41 l-4 35 22 -20 c22
-20 22 -20 41 4 10 13 19 27 19 31 0 17 -144 103 -213 128 -60 22 -90 26 -182
26 -60 1 -139 -3 -175 -7 l-66 -9 1 29 c2 28 3 28 91 41 119 17 232 10 321
-20 l72 -24 11 25 c14 31 -1 44 -75 67 -95 28 -192 35 -305 20 -90 -12 -106
-12 -113 0 -4 8 -21 14 -37 14 l-30 0 0 -76z m-36 -130 c57 -15 71 -15 198 1
157 21 240 13 340 -32 47 -21 58 -30 58 -49 0 -27 -12 -31 -30 -9 -20 24 -110
46 -157 39 -24 -3 -63 -19 -88 -35 -42 -26 -54 -29 -135 -29 -49 0 -92 5 -95
10 -4 6 -25 20 -48 32 -62 31 -139 30 -199 -4 -43 -24 -48 -25 -48 -9 0 41 72
100 124 101 10 0 46 -7 80 -16z m24 -134 c96 -59 96 -201 0 -260 -43 -26 -123
-27 -161 -2 -86 57 -97 170 -25 239 40 37 50 41 108 42 28 1 57 -6 78 -19z
m504 -5 c67 -46 84 -137 38 -212 -52 -86 -189 -87 -253 -1 -28 37 -33 114 -10
158 41 79 150 106 225 55z m-299 -107 c-4 -63 -1 -79 19 -118 29 -55 100 -105
160 -114 48 -7 138 15 158 39 26 31 33 15 28 -64 -8 -131 -64 -219 -175 -269
-55 -25 -400 -25 -455 0 -53 24 -123 92 -148 144 -22 44 -41 204 -25 204 4 0
19 -9 34 -19 37 -27 108 -44 150 -36 133 25 206 138 176 273 l-7 32 45 0 44 0
-4 -72z m-503 -18 c0 -28 -2 -30 -22 -19 -18 10 -24 8 -35 -7 -20 -27 -16 -37
22 -62 33 -21 46 -54 27 -66 -16 -10 -81 15 -97 37 -39 56 6 147 74 147 28 0
31 -3 31 -30z m1003 18 c33 -17 46 -39 47 -78 0 -46 -21 -76 -65 -90 -67 -22
-78 25 -15 66 33 22 38 29 30 45 -14 25 -30 33 -43 20 -18 -18 -27 -13 -27 19
0 26 4 30 26 30 14 0 35 -5 47 -12z m-748 -628 c4 -16 17 -45 30 -65 l24 -35
-68 0 c-103 0 -110 -9 -113 -140 l-3 -105 -62 -3 c-62 -3 -63 -3 -63 -32 0
-29 1 -29 63 -32 l62 -3 0 -60 0 -60 -40 -3 c-93 -8 -145 33 -145 115 0 61 28
161 63 227 36 70 134 173 192 204 52 27 52 27 60 -8z m498 -3 c67 -43 145
-129 179 -198 51 -101 73 -241 47 -291 -14 -27 -69 -48 -124 -48 l-45 0 0 65
0 65 60 0 60 0 0 30 0 30 -60 0 -60 0 0 100 c0 94 -2 103 -25 125 -21 22 -33
25 -90 25 -36 0 -65 1 -65 3 0 1 11 24 25 51 14 27 25 55 25 63 0 20 17 16 73
-20z m-374 -4 c-13 -16 -25 -30 -27 -33 -5 -8 -32 32 -32 47 0 9 14 13 42 13
l41 0 -24 -27z m225 -4 l-16 -31 -24 23 c-33 31 -30 39 16 39 l41 0 -17 -31z
m-103 -30 c37 -47 30 -59 -36 -59 -66 0 -73 12 -35 59 18 23 34 41 36 41 1 0
17 -18 35 -41z m239 -274 l0 -155 -275 0 -275 0 0 155 0 155 275 0 275 0 0
-155z m0 -255 l0 -30 -275 0 -275 0 0 30 0 30 275 0 275 0 0 -30z"/>
<path d="M585 1335 c-19 -18 -25 -35 -25 -65 0 -56 34 -90 89 -90 32 0 44 6
65 31 35 41 34 83 -3 120 -38 38 -91 40 -126 4z m90 -55 c8 -26 -1 -40 -26
-40 -22 0 -34 22 -25 45 8 22 44 18 51 -5z"/>
<path d="M1079 1331 c-20 -20 -29 -39 -29 -61 0 -22 9 -41 29 -61 75 -74 194
8 147 100 -31 60 -99 70 -147 22z m89 -59 c4 -28 -24 -40 -45 -19 -14 13 -14
19 -3 32 18 22 44 15 48 -13z"/>
<path d="M990 980 c0 -5 -9 -19 -20 -30 -17 -17 -33 -20 -125 -20 l-105 0 0
-30 0 -30 113 0 c122 1 146 8 178 56 28 43 25 64 -11 64 -16 0 -30 -4 -30 -10z"/>
<path d="M837 410 c-34 -27 -43 -70 -23 -109 31 -60 99 -70 147 -22 39 40 39
82 0 122 -36 35 -86 39 -124 9z m83 -55 c10 -12 10 -18 0 -30 -25 -30 -61 -7
-46 30 3 8 12 15 19 15 8 0 20 -7 27 -15z"/>
</g>
</svg>
