<?xml version="1.0" standalone="no"?>
<!DOCTYPE svg PUBLIC "-//W3C//DTD SVG 20010904//EN"
 "http://www.w3.org/TR/2001/REC-SVG-20010904/DTD/svg10.dtd">
<svg version="1.0" xmlns="http://www.w3.org/2000/svg"
 width="480.000000pt" height="480.000000pt" viewBox="0 0 480.000000 480.000000"
 preserveAspectRatio="xMidYMid meet">

<g transform="translate(0.000000,480.000000) scale(0.100000,-0.100000)"
fill="#000000" stroke="none">
<path d="M2227 4310 c-192 -15 -421 -73 -565 -142 -109 -53 -214 -151 -231
-215 -13 -47 -24 -58 -67 -67 -81 -18 -172 -105 -263 -253 -71 -115 -112 -300
-112 -507 -1 -156 9 -222 62 -421 53 -197 83 -275 130 -335 36 -46 39 -54 38
-112 0 -35 -3 -56 -6 -48 -32 89 -109 190 -145 190 -30 0 -20 -18 32 -57 36
-27 59 -54 76 -92 24 -50 35 -90 93 -336 l21 -90 -26 -23 c-16 -14 -33 -21
-43 -17 -11 4 -13 3 -5 -5 7 -7 23 -6 53 5 24 8 44 15 46 15 1 0 7 -19 14 -42
23 -74 89 -202 139 -268 91 -121 205 -208 372 -287 149 -70 255 -93 431 -93
195 0 359 38 514 121 171 90 293 187 376 298 27 37 52 71 57 76 9 11 79 154
112 230 33 74 47 87 89 79 l36 -7 -29 24 -29 23 7 107 c3 60 2 110 -3 113 -5
3 -11 -8 -15 -24 -9 -50 -123 -364 -150 -418 -67 -133 -215 -290 -391 -417
-192 -139 -270 -160 -585 -160 -140 0 -229 4 -255 12 -85 26 -325 177 -417
262 -182 168 -273 371 -313 701 l-6 55 21 -35 c37 -59 117 -128 193 -167 65
-33 80 -37 152 -37 92 -1 148 14 221 60 116 73 193 242 194 425 l0 76 100 12
c56 6 132 11 170 11 l70 0 0 -48 c0 -99 59 -257 127 -340 74 -90 181 -136 307
-130 71 3 92 8 158 40 160 79 243 213 255 408 8 130 -13 226 -69 312 -22 35
-44 65 -48 68 -12 8 -50 74 -50 88 0 15 39 16 77 1 23 -8 30 -7 40 7 7 10 13
13 13 7 0 -5 29 -39 65 -74 l65 -64 30 -150 c17 -82 33 -161 36 -174 5 -24 5
-24 44 14 57 55 108 158 120 241 13 91 13 437 0 544 -34 275 -142 502 -328
689 -101 102 -178 157 -306 216 -235 111 -432 146 -699 125z m-418 -1099 c12
-102 27 -191 33 -198 6 -7 19 -13 29 -13 14 0 21 -9 26 -30 6 -31 12 -34 49
-24 36 10 57 105 52 230 -6 125 8 124 23 -2 16 -136 20 -148 52 -152 22 -3 27
-8 27 -33 l0 -29 128 -2 c70 -1 159 -1 197 1 57 2 68 1 58 -10 -15 -15 -17
-68 -3 -89 6 -10 2 -27 -15 -55 -21 -38 -55 -133 -69 -196 -6 -25 -8 -26 -103
-33 -54 -4 -133 -10 -175 -13 -70 -5 -78 -3 -84 13 -24 75 -52 136 -80 175
-22 32 -29 51 -23 60 13 21 11 73 -3 91 -9 10 -42 19 -96 26 -46 5 -86 13 -89
16 -3 3 0 40 7 82 6 42 11 142 10 223 -1 80 -2 155 -1 166 1 19 1 19 14 0 8
-11 24 -103 36 -204z m1083 -279 c10 -4 -30 -7 -87 -7 -57 0 -97 3 -87 7 9 4
49 7 87 7 39 0 78 -3 87 -7z m-1448 -28 c3 -9 -20 -41 -58 -82 -70 -74 -129
-161 -140 -206 -10 -40 -13 -31 -19 48 l-5 69 96 96 c94 93 114 106 126 75z
m1560 -51 c33 -15 69 -33 78 -41 32 -26 86 -147 99 -216 23 -133 -11 -303 -75
-384 -95 -118 -227 -176 -351 -153 -119 22 -203 90 -255 204 -75 169 -76 344
-3 493 l25 51 97 23 c234 57 298 61 385 23z m-1376 6 c-37 -5 -90 -17 -118
-28 -56 -21 -65 -19 -19 4 38 20 100 33 159 33 37 0 33 -2 -22 -9z m109 -5
c-3 -3 -12 -4 -19 -1 -8 3 -5 6 6 6 11 1 17 -2 13 -5z m11 -66 c83 -8 120 -16
137 -30 41 -32 105 -187 105 -253 l0 -30 -19 30 c-25 42 -49 61 -106 86 -101
45 -241 20 -343 -61 -56 -44 -112 -123 -112 -157 0 -20 9 -13 64 44 53 56 126
114 126 101 0 -2 -9 -21 -20 -43 -11 -22 -20 -51 -20 -65 0 -79 51 -157 105
-161 67 -4 135 2 135 12 0 16 42 48 63 49 14 0 17 -5 12 -21 -6 -18 -4 -19 13
-10 26 14 42 61 42 123 0 56 -10 79 -54 127 -30 33 -30 33 -6 26 41 -13 79
-44 105 -89 29 -49 30 -66 10 -159 -38 -178 -127 -276 -284 -313 -120 -28
-282 48 -357 168 -62 98 -87 314 -50 428 21 62 78 159 84 141 6 -19 30 -12 79
23 71 50 101 54 291 34z m520 -235 c-10 -2 -28 -2 -40 0 -13 2 -5 4 17 4 22 1
32 -1 23 -4z m-564 -64 c17 -25 12 -45 -15 -60 -40 -21 -79 37 -47 69 18 18
45 14 62 -9z m1134 -456 c-10 -2 -28 -2 -40 0 -13 2 -5 4 17 4 22 1 32 -1 23
-4z"/>
<path d="M2678 2666 c-99 -27 -175 -104 -185 -188 l-4 -43 30 61 c33 66 85
110 144 120 32 6 32 6 9 -11 -57 -42 -82 -157 -47 -225 34 -67 39 -70 137 -70
57 0 87 4 83 10 -7 11 43 59 62 60 19 0 26 -20 11 -37 -12 -15 -11 -15 8 -5
48 25 67 118 40 194 l-13 37 30 -15 c17 -9 52 -37 79 -61 42 -40 48 -43 48
-24 0 30 -88 121 -148 154 -57 31 -151 57 -202 56 -19 0 -56 -6 -82 -13z m72
-116 c24 -44 -38 -83 -70 -45 -10 12 -10 21 -2 40 14 31 56 34 72 5z"/>
<path d="M3533 2508 c-34 -36 -51 -66 -63 -109 -11 -38 -4 -37 16 4 9 17 39
56 67 85 42 42 47 52 31 52 -11 0 -34 -15 -51 -32z"/>
<path d="M2090 1960 c0 -6 6 -25 14 -44 19 -46 73 -70 135 -61 98 15 157 59
63 48 -58 -6 -153 18 -182 47 -22 22 -30 25 -30 10z"/>
<path d="M3468 1903 c6 -2 18 -2 25 0 6 3 1 5 -13 5 -14 0 -19 -2 -12 -5z"/>
<path d="M1170 1816 c0 -2 8 -10 18 -17 15 -13 16 -12 3 4 -13 16 -21 21 -21
13z"/>
<path d="M2575 1713 c-118 -34 -173 -45 -260 -51 -120 -8 -274 0 -327 16 -18
6 -55 13 -83 16 l-50 6 40 -19 c136 -61 462 -59 685 5 54 16 150 60 150 69 0
3 -1 4 -2 4 -2 -1 -70 -21 -153 -46z"/>
</g>
</svg>
